<svg xmlns="http://www.w3.org/2000/svg" viewBox="0 0 1440 900" role="img" aria-label="EducazenKids previous website">
  <defs>
    <linearGradient id="hdr" x1="0" y1="0" x2="0" y2="1">
      <stop offset="0%" stop-color="#f8f4f7"/>
      <stop offset="100%" stop-color="#efe8ef"/>
    </linearGradient>
  </defs>
  <rect width="1440" height="900" fill="#f5f0f4"/>
  <rect width="1440" height="72" fill="url(#hdr)"/>
  <rect x="48" y="22" width="140" height="28" rx="4" fill="#c2185b" opacity="0.85"/>
  <rect x="520" y="28" width="72" height="12" rx="2" fill="#999"/>
  <rect x="620" y="28" width="88" height="12" rx="2" fill="#999"/>
  <rect x="740" y="28" width="64" height="12" rx="2" fill="#999"/>
  <rect x="840" y="28" width="96" height="12" rx="2" fill="#999"/>
  <rect x="1180" y="20" width="120" height="32" rx="16" fill="#7b1fa2" opacity="0.5"/>
  <rect x="48" y="120" width="520" height="36" rx="4" fill="#333" opacity="0.2"/>
  <rect x="48" y="172" width="440" height="18" rx="3" fill="#666" opacity="0.15"/>
  <rect x="48" y="200" width="380" height="18" rx="3" fill="#666" opacity="0.12"/>
  <rect x="48" y="248" width="160" height="44" rx="6" fill="#c2185b" opacity="0.35"/>
  <rect x="640" y="100" width="752" height="340" rx="8" fill="#ddd"/>
  <rect x="640" y="100" width="752" height="340" rx="8" fill="#c2185b" opacity="0.08"/>
  <rect x="48" y="480" width="1344" height="1" fill="#ddd"/>
  <rect x="48" y="520" width="280" height="200" rx="6" fill="#fff" stroke="#e0d8de" stroke-width="1"/>
  <rect x="68" y="540" width="240" height="100" rx="4" fill="#e8e0e5"/>
  <rect x="68" y="660" width="180" height="14" rx="2" fill="#aaa"/>
  <rect x="68" y="682" width="120" height="10" rx="2" fill="#ccc"/>
  <rect x="380" y="520" width="280" height="200" rx="6" fill="#fff" stroke="#e0d8de" stroke-width="1"/>
  <rect x="400" y="540" width="240" height="100" rx="4" fill="#e8e0e5"/>
  <rect x="400" y="660" width="180" height="14" rx="2" fill="#aaa"/>
  <rect x="712" y="520" width="280" height="200" rx="6" fill="#fff" stroke="#e0d8de" stroke-width="1"/>
  <rect x="732" y="540" width="240" height="100" rx="4" fill="#e8e0e5"/>
  <rect x="1044" y="520" width="348" height="200" rx="6" fill="#fff" stroke="#e0d8de" stroke-width="1"/>
  <rect x="1064" y="540" width="308" height="100" rx="4" fill="#e8e0e5"/>
  <text x="720" y="860" text-anchor="middle" font-family="system-ui,sans-serif" font-size="14" fill="#999" opacity="0.6">Previous site   generic layout, limited enrollment paths</text>
</svg>
